<svg id="svg" xmlns="http://www.w3.org/2000/svg" xmlns:xlink="http://www.w3.org/1999/xlink" width="400" height="471.67630057803467" viewBox="0, 0, 400,471.67630057803467"><g id="svgg"><path id="path0" d="M259.398 82.177 C 231.281 96.243,214.401 118.575,183.446 182.659 C 131.676 289.833,116.688 306.262,70.520 306.438 C 47.806 306.524,41.603 311.658,55.922 318.522 C 75.410 327.862,112.298 338.916,142.197 344.376 L 163.006 348.176 163.669 370.769 C 164.311 392.600,164.506 393.338,169.450 392.635 C 174.247 391.953,174.608 390.588,175.228 370.774 C 175.883 349.840,175.949 349.629,182.151 348.443 C 191.506 346.655,191.908 347.594,191.908 371.235 C 191.908 391.111,192.299 393.064,196.284 393.064 C 202.250 393.064,203.468 388.761,203.468 367.688 C 203.468 348.318,204.412 346.821,216.618 346.821 C 225.923 346.821,249.872 339.997,262.191 333.835 C 305.230 312.309,319.748 279.298,327.152 186.127 C 332.281 121.572,335.538 111.038,353.179 101.942 C 364.670 96.017,357.284 89.029,329.766 79.791 C 302.896 70.771,280.692 71.524,259.398 82.177 M305.380 99.244 C 318.772 112.636,309.784 136.416,291.329 136.416 C 280.781 136.416,270.520 125.585,270.520 114.451 C 270.520 103.317,280.781 92.486,291.329 92.486 C 296.306 92.486,300.767 94.631,305.380 99.244 M286.137 111.561 C 284.384 116.327,286.809 120.231,291.522 120.231 C 294.708 120.231,295.954 118.606,295.954 114.451 C 295.954 108.260,288.191 105.975,286.137 111.561 M311.561 172.556 C 315.431 173.593,316.763 175.657,316.763 180.616 L 316.763 187.283 298.123 187.283 C 235.530 187.283,194.557 263.990,225.346 323.530 C 229.894 332.325,228.450 335.260,219.576 335.260 C 204.016 335.260,194.030 283.611,203.258 250.867 C 218.176 197.939,269.040 161.160,311.561 172.556 " stroke="none" fill-rule="evenodd"></path></g></svg>
